KayPhoDuKarenni-Bold.ufo
<glyph name="percent" format="2">
  <advance width="949"/>
  <unicode hex="0025"/>
  <outline>
    <contour>
      <point x="265" y="0" type="line"/>
      <point x="843" y="1058" type="line"/>
      <point x="673" y="1061" type="line"/>
      <point x="99" y="0" type="line"/>
    </contour>
    <contour>
      <point x="317" y="664" type="line"/>
      <point x="317" y="820" type="line"/>
      <point x="160" y="820" type="line"/>
      <point x="160" y="664" type="line"/>
    </contour>
    <contour>
      <point x="776" y="236" type="line"/>
      <point x="776" y="392" type="line"/>
      <point x="619" y="392" type="line"/>
      <point x="619" y="236" type="line"/>
    </contour>
  </outline>
</glyph>
<glyph name="comma" format="2">
  <advance width="475"/>
  <unicode hex="002C"/>
  <outline>
    <contour>
      <point x="51" y="-119" type="line"/>
      <point x="76" y="-140" type="line"/>
      <point x="256" y="4" type="line"/>
      <point x="319" y="4" type="line"/>
      <point x="319" y="158" type="line"/>
      <point x="162" y="158" type="line"/>
      <point x="162" y="36" type="line"/>
    </contour>
  </outline>
</glyph>
<glyph name="uniA901" format="2">
  <advance width="906"/>
  <unicode hex="A901"/>
  <outline>
    <contour>
      <point x="571" y="154" type="curve" smooth="yes"/>
      <point x="423" y="154" type="line"/>
      <point x="441" y="170"/>
      <point x="495" y="194"/>
      <point x="529" y="204" type="curve" smooth="yes"/>
      <point x="563" y="215"/>
      <point x="607" y="222"/>
      <point x="614" y="206" type="curve"/>
      <point x="614" y="186" type="line" smooth="yes"/>
      <point x="614" y="165"/>
      <point x="600" y="154"/>
    </contour>
    <contour>
      <point x="614" y="531" type="line"/>
      <point x="224" y="531" type="line"/>
      <point x="104" y="517"/>
      <point x="44" y="442"/>
      <point x="44" y="306" type="curve" smooth="yes"/>
      <point x="44" y="222" type="line" smooth="yes"/>
      <point x="44" y="155"/>
      <point x="62" y="101"/>
      <point x="98" y="61" type="curve" smooth="yes"/>
      <point x="135" y="20"/>
      <point x="180" y="0"/>
      <point x="235" y="0" type="curve" smooth="yes"/>
      <point x="590" y="0" type="line" smooth="yes"/>
      <point x="654" y="1"/>
      <point x="708" y="33"/>
      <point x="741" y="93" type="curve" smooth="yes"/>
      <point x="763" y="133"/>
      <point x="769" y="169"/>
      <point x="769" y="241" type="curve" smooth="yes"/>
      <point x="769" y="320"/>
      <point x="699" y="353"/>
      <point x="619" y="353" type="curve" smooth="yes"/>
      <point x="477" y="353"/>
      <point x="312" y="287"/>
      <point x="239" y="154" type="curve"/>
      <point x="213" y="162"/>
      <point x="200" y="184"/>
      <point x="200" y="220" type="curve" smooth="yes"/>
      <point x="200" y="296" type="line" smooth="yes"/>
      <point x="200" y="354"/>
      <point x="217" y="383"/>
      <point x="251" y="384" type="curve" smooth="yes"/>
      <point x="769" y="384" type="line"/>
      <point x="769" y="598" type="line" smooth="yes"/>
      <point x="769" y="741"/>
      <point x="709" y="815"/>
      <point x="590" y="819" type="curve"/>
      <point x="224" y="819" type="line"/>
      <point x="104" y="805"/>
      <point x="44" y="731"/>
      <point x="44" y="598" type="curve" smooth="yes"/>
      <point x="44" y="564" type="line"/>
      <point x="200" y="564" type="line"/>
      <point x="200" y="588" type="line" smooth="yes"/>
      <point x="200" y="614"/>
      <point x="204" y="635"/>
      <point x="211" y="651" type="curve" smooth="yes"/>
      <point x="216" y="660"/>
      <point x="229" y="664"/>
      <point x="251" y="665" type="curve" smooth="yes"/>
      <point x="568" y="665" type="line" smooth="yes"/>
      <point x="589" y="665"/>
      <point x="601" y="662"/>
      <point x="604" y="657" type="curve" smooth="yes"/>
      <point x="611" y="647"/>
      <point x="614" y="629"/>
      <point x="614" y="604" type="curve" smooth="yes"/>
    </contour>
  </outline>
</glyph>
<glyph name="uniA903" format="2">
  <advance width="906"/>
  <unicode hex="A903"/>
  <outline>
    <contour>
      <point x="319" y="472" type="line"/>
      <point x="319" y="601" type="line"/>
      <point x="224" y="601" type="line"/>
      <point x="227" y="642"/>
      <point x="243" y="664"/>
      <point x="274" y="665" type="curve" smooth="yes"/>
      <point x="572" y="665" type="line" smooth="yes"/>
      <point x="611" y="665"/>
      <point x="637" y="645"/>
      <point x="637" y="604" type="curve" smooth="yes"/>
      <point x="637" y="591" type="line"/>
      <point x="68" y="315" type="line"/>
      <point x="68" y="222" type="line" smooth="yes"/>
      <point x="65" y="99"/>
      <point x="141" y="3"/>
      <point x="259" y="0" type="curve" smooth="yes"/>
      <point x="614" y="0" type="line" smooth="yes"/>
      <point x="641" y="0"/>
      <point x="667" y="7"/>
      <point x="694" y="20" type="curve" smooth="yes"/>
      <point x="722" y="35"/>
      <point x="746" y="59"/>
      <point x="765" y="93" type="curve" smooth="yes"/>
      <point x="784" y="128"/>
      <point x="793" y="178"/>
      <point x="793" y="230" type="curve" smooth="yes"/>
      <point x="793" y="332" type="line"/>
      <point x="605" y="332" type="line" smooth="yes"/>
      <point x="471" y="332"/>
      <point x="337" y="289"/>
      <point x="263" y="154" type="curve"/>
      <point x="243" y="154"/>
      <point x="225" y="175"/>
      <point x="225" y="211" type="curve" smooth="yes"/>
      <point x="225" y="230" type="line"/>
      <point x="793" y="505" type="line"/>
      <point x="793" y="598" type="line" smooth="yes"/>
      <point x="793" y="741"/>
      <point x="730" y="815"/>
      <point x="603" y="819" type="curve"/>
      <point x="248" y="819" type="line"/>
      <point x="128" y="805"/>
      <point x="68" y="731"/>
      <point x="68" y="598" type="curve" smooth="yes"/>
      <point x="68" y="472" type="line"/>
    </contour>
    <contour>
      <point x="599" y="154" type="curve" smooth="yes"/>
      <point x="452" y="154" type="line"/>
      <point x="472" y="188"/>
      <point x="523" y="194"/>
      <point x="553" y="194" type="curve" smooth="yes"/>
      <point x="636" y="194" type="line"/>
      <point x="633" y="173"/>
      <point x="623" y="154"/>
    </contour>
  </outline>
</glyph>
<glyph name="uniA904" format="2">
  <advance width="906"/>
  <unicode hex="A904"/>
  <outline>
    <contour>
      <point x="224" y="720" type="line"/>
      <point x="224" y="819" type="line"/>
      <point x="68" y="819" type="line"/>
      <point x="68" y="222" type="line" smooth="yes"/>
      <point x="68" y="155"/>
      <point x="86" y="101"/>
      <point x="122" y="61" type="curve" smooth="yes"/>
      <point x="159" y="20"/>
      <point x="204" y="0"/>
      <point x="259" y="0" type="curve" smooth="yes"/>
      <point x="379" y="0" type="line"/>
      <point x="379" y="154" type="line"/>
      <point x="286" y="154" type="line" smooth="yes"/>
      <point x="245" y="154"/>
      <point x="224" y="177"/>
      <point x="224" y="222" type="curve" smooth="yes"/>
      <point x="224" y="509" type="line"/>
      <point x="379" y="665" type="line"/>
      <point x="572" y="665" type="line" smooth="yes"/>
      <point x="611" y="665"/>
      <point x="637" y="645"/>
      <point x="637" y="604" type="curve" smooth="yes"/>
      <point x="637" y="-192" type="line" smooth="yes"/>
      <point x="637" y="-233"/>
      <point x="623" y="-253"/>
      <point x="594" y="-253" type="curve" smooth="yes"/>
      <point x="479" y="-256" type="line"/>
      <point x="479" y="-410" type="line"/>
      <point x="614" y="-410" type="line" smooth="yes"/>
      <point x="658" y="-410"/>
      <point x="700" y="-390"/>
      <point x="736" y="-358" type="curve" smooth="yes"/>
      <point x="772" y="-322"/>
      <point x="793" y="-264"/>
      <point x="793" y="-189" type="curve" smooth="yes"/>
      <point x="793" y="598" type="line" smooth="yes"/>
      <point x="793" y="741"/>
      <point x="730" y="815"/>
      <point x="603" y="819" type="curve" smooth="yes"/>
      <point x="324" y="819" type="line"/>
    </contour>
  </outline>
</glyph>
<glyph name="uniA906" format="2">
  <advance width="906"/>
  <unicode hex="A906"/>
  <outline>
    <contour>
      <point x="434" y="180" type="curve" smooth="yes"/>
      <point x="434" y="80"/>
      <point x="514" y="0"/>
      <point x="613" y="0" type="curve" smooth="yes"/>
      <point x="705" y="0"/>
      <point x="784" y="70"/>
      <point x="792" y="161" type="curve"/>
      <point x="793" y="160" type="line"/>
      <point x="793" y="598" type="line" smooth="yes"/>
      <point x="793" y="741"/>
      <point x="730" y="815"/>
      <point x="603" y="819" type="curve" smooth="yes"/>
      <point x="418" y="819" type="line"/>
      <point x="387" y="768"/>
      <point x="356" y="715"/>
      <point x="322" y="662" type="curve" smooth="yes"/>
      <point x="290" y="608"/>
      <point x="257" y="554"/>
      <point x="224" y="501" type="curve"/>
      <point x="224" y="819" type="line"/>
      <point x="68" y="819" type="line"/>
      <point x="68" y="0" type="line"/>
      <point x="224" y="0" type="line"/>
      <point x="224" y="207" type="line"/>
      <point x="263" y="270"/>
      <point x="326" y="378"/>
      <point x="362" y="436" type="curve" smooth="yes"/>
      <point x="406" y="510"/>
      <point x="451" y="585"/>
      <point x="499" y="665" type="curve"/>
      <point x="582" y="665" type="line" smooth="yes"/>
      <point x="621" y="665"/>
      <point x="637" y="645"/>
      <point x="637" y="604" type="curve" smooth="yes"/>
      <point x="637" y="358" type="line"/>
      <point x="629" y="359"/>
      <point x="621" y="360"/>
      <point x="613" y="360" type="curve" smooth="yes"/>
      <point x="514" y="360"/>
      <point x="434" y="278"/>
    </contour>
    <contour>
      <point x="571" y="180" type="curve" smooth="yes"/>
      <point x="571" y="203"/>
      <point x="588" y="222"/>
      <point x="613" y="222" type="curve" smooth="yes"/>
      <point x="638" y="222"/>
      <point x="656" y="203"/>
      <point x="656" y="180" type="curve" smooth="yes"/>
      <point x="656" y="156"/>
      <point x="638" y="138"/>
      <point x="613" y="138" type="curve" smooth="yes"/>
      <point x="588" y="138"/>
      <point x="571" y="156"/>
    </contour>
  </outline>
</glyph>
<glyph name="uniA908" format="2">
  <advance width="906"/>
  <unicode hex="A908"/>
  <outline>
    <contour>
      <point x="793" y="341" type="line"/>
      <point x="637" y="341" type="line"/>
      <point x="637" y="214" type="line" smooth="yes"/>
      <point x="637" y="173"/>
      <point x="623" y="152"/>
      <point x="595" y="152" type="curve" smooth="yes"/>
      <point x="286" y="154" type="line" smooth="yes"/>
      <point x="245" y="154"/>
      <point x="224" y="177"/>
      <point x="224" y="222" type="curve" smooth="yes"/>
      <point x="224" y="819" type="line"/>
      <point x="68" y="819" type="line"/>
      <point x="68" y="222" type="line" smooth="yes"/>
      <point x="68" y="155"/>
      <point x="86" y="101"/>
      <point x="122" y="61" type="curve" smooth="yes"/>
      <point x="159" y="20"/>
      <point x="204" y="0"/>
      <point x="259" y="0" type="curve" smooth="yes"/>
      <point x="614" y="0" type="line" smooth="yes"/>
      <point x="641" y="0"/>
      <point x="667" y="7"/>
      <point x="694" y="20" type="curve" smooth="yes"/>
      <point x="722" y="35"/>
      <point x="746" y="59"/>
      <point x="765" y="93" type="curve" smooth="yes"/>
      <point x="784" y="128"/>
      <point x="793" y="171"/>
      <point x="793" y="222" type="curve" smooth="yes"/>
    </contour>
  </outline>
</glyph>
<glyph name="uniA90A" format="2">
  <advance width="1007"/>
  <unicode hex="A90A"/>
  <outline>
    <contour>
      <point x="292" y="330" type="curve"/>
      <point x="292" y="156" type="line"/>
      <point x="225" y="155" type="line"/>
      <point x="225" y="237" type="line" smooth="yes"/>
      <point x="225" y="258"/>
      <point x="233" y="269"/>
      <point x="242" y="281" type="curve" smooth="yes"/>
      <point x="250" y="289"/>
      <point x="282" y="320"/>
    </contour>
    <contour>
      <point x="70" y="248" type="curve"/>
      <point x="70" y="0" type="line"/>
      <point x="446" y="0" type="line"/>
      <point x="446" y="482" type="line"/>
      <point x="628" y="665" type="line"/>
      <point x="659" y="665" type="line" smooth="yes"/>
      <point x="698" y="665"/>
      <point x="717" y="644"/>
      <point x="717" y="602" type="curve" smooth="yes"/>
      <point x="717" y="154" type="line"/>
      <point x="585" y="154" type="line"/>
      <point x="585" y="0" type="line"/>
      <point x="873" y="0" type="line"/>
      <point x="873" y="598" type="line" smooth="yes"/>
      <point x="873" y="741"/>
      <point x="809" y="815"/>
      <point x="682" y="819" type="curve" smooth="yes"/>
      <point x="574" y="819" type="line"/>
      <point x="437" y="691" type="line"/>
      <point x="411" y="766"/>
      <point x="353" y="819"/>
      <point x="259" y="819" type="curve" smooth="yes"/>
      <point x="159" y="819"/>
      <point x="70" y="747"/>
      <point x="70" y="618" type="curve" smooth="yes"/>
      <point x="70" y="513" type="line"/>
      <point x="225" y="513" type="line"/>
      <point x="225" y="634" type="line" smooth="yes"/>
      <point x="225" y="659"/>
      <point x="241" y="665"/>
      <point x="259" y="665" type="curve" smooth="yes"/>
      <point x="279" y="665"/>
      <point x="290" y="661"/>
      <point x="290" y="634" type="curve" smooth="yes"/>
      <point x="290" y="527" type="line"/>
      <point x="237" y="474"/>
      <point x="158" y="400"/>
      <point x="105" y="347" type="curve"/>
      <point x="87" y="332"/>
      <point x="72" y="293"/>
    </contour>
  </outline>
</glyph>
<glyph name="uniA90B" format="2">
  <advance width="906"/>
  <unicode hex="A90B"/>
  <outline>
    <contour>
      <point x="637" y="507" type="line"/>
      <point x="224" y="507" type="line"/>
      <point x="224" y="589" type="line" smooth="yes"/>
      <point x="224" y="638"/>
      <point x="241" y="664"/>
      <point x="274" y="665" type="curve" smooth="yes"/>
      <point x="579" y="665" type="line" smooth="yes"/>
      <point x="618" y="665"/>
      <point x="637" y="645"/>
      <point x="637" y="604" type="curve" smooth="yes"/>
    </contour>
    <contour>
      <point x="637" y="366" type="line"/>
      <point x="637" y="214" type="line" smooth="yes"/>
      <point x="637" y="173"/>
      <point x="623" y="152"/>
      <point x="595" y="152" type="curve" smooth="yes"/>
      <point x="286" y="154" type="line" smooth="yes"/>
      <point x="254" y="154"/>
      <point x="234" y="168"/>
      <point x="227" y="195" type="curve"/>
      <point x="392" y="195" type="line"/>
      <point x="392" y="328" type="line"/>
      <point x="68" y="328" type="line"/>
      <point x="68" y="224" type="line" smooth="yes"/>
      <point x="68" y="156"/>
      <point x="86" y="101"/>
      <point x="122" y="61" type="curve" smooth="yes"/>
      <point x="159" y="20"/>
      <point x="204" y="0"/>
      <point x="259" y="0" type="curve" smooth="yes"/>
      <point x="614" y="0" type="line" smooth="yes"/>
      <point x="641" y="0"/>
      <point x="667" y="7"/>
      <point x="694" y="20" type="curve" smooth="yes"/>
      <point x="722" y="35"/>
      <point x="746" y="59"/>
      <point x="765" y="93" type="curve" smooth="yes"/>
      <point x="784" y="128"/>
      <point x="793" y="172"/>
      <point x="793" y="224" type="curve" smooth="yes"/>
      <point x="793" y="598" type="line" smooth="yes"/>
      <point x="793" y="741"/>
      <point x="730" y="815"/>
      <point x="603" y="819" type="curve"/>
      <point x="248" y="819" type="line"/>
      <point x="128" y="805"/>
      <point x="68" y="731"/>
      <point x="68" y="598" type="curve" smooth="yes"/>
      <point x="68" y="366" type="line"/>
    </contour>
  </outline>
</glyph>
<glyph name="uniA90C" format="2">
  <advance width="906"/>
  <unicode hex="A90C"/>
  <outline>
    <contour>
      <point x="637" y="458" type="line"/>
      <point x="353" y="456" type="line"/>
      <point x="372" y="476"/>
      <point x="439" y="546"/>
      <point x="454" y="562" type="curve" smooth="yes"/>
      <point x="472" y="580"/>
      <point x="528" y="638"/>
      <point x="554" y="665" type="curve"/>
      <point x="579" y="665" type="line" smooth="yes"/>
      <point x="618" y="665"/>
      <point x="637" y="645"/>
      <point x="637" y="604" type="curve" smooth="yes"/>
    </contour>
    <contour>
      <point x="224" y="537" type="line"/>
      <point x="224" y="819" type="line"/>
      <point x="68" y="819" type="line"/>
      <point x="68" y="0" type="line"/>
      <point x="356" y="0" type="line"/>
      <point x="356" y="154" type="line"/>
      <point x="224" y="154" type="line"/>
      <point x="224" y="306" type="line"/>
      <point x="637" y="306" type="line"/>
      <point x="637" y="154" type="line"/>
      <point x="506" y="154" type="line"/>
      <point x="506" y="0" type="line"/>
      <point x="793" y="0" type="line"/>
      <point x="793" y="598" type="line" smooth="yes"/>
      <point x="793" y="741"/>
      <point x="737" y="815"/>
      <point x="610" y="819" type="curve" smooth="yes"/>
      <point x="498" y="819" type="line"/>
    </contour>
  </outline>
</glyph>
<glyph name="uniA90E" format="2">
  <advance width="906"/>
  <unicode hex="A90E"/>
  <outline>
    <contour>
      <point x="580" y="420" type="curve" smooth="yes"/>
      <point x="580" y="518"/>
      <point x="498" y="600"/>
      <point x="400" y="600" type="curve" smooth="yes"/>
      <point x="325" y="600"/>
      <point x="273" y="571"/>
      <point x="244" y="510" type="curve"/>
      <point x="230" y="534"/>
      <point x="224" y="533"/>
      <point x="224" y="566" type="curve" smooth="yes"/>
      <point x="224" y="589" type="line" smooth="yes"/>
      <point x="224" y="639"/>
      <point x="241" y="664"/>
      <point x="275" y="665" type="curve" smooth="yes"/>
      <point x="579" y="665" type="line" smooth="yes"/>
      <point x="618" y="665"/>
      <point x="637" y="645"/>
      <point x="637" y="604" type="curve" smooth="yes"/>
      <point x="637" y="154" type="line"/>
      <point x="506" y="154" type="line"/>
      <point x="506" y="0" type="line"/>
      <point x="793" y="0" type="line"/>
      <point x="793" y="598" type="line" smooth="yes"/>
      <point x="793" y="741"/>
      <point x="737" y="815"/>
      <point x="610" y="819" type="curve"/>
      <point x="248" y="819" type="line" smooth="yes"/>
      <point x="128" y="819"/>
      <point x="68" y="731"/>
      <point x="68" y="568" type="curve" smooth="yes"/>
      <point x="68" y="467"/>
      <point x="113" y="389"/>
      <point x="196" y="349" type="curve"/>
      <point x="68" y="154" type="line"/>
      <point x="68" y="0" type="line"/>
      <point x="357" y="0" type="line"/>
      <point x="357" y="154" type="line"/>
      <point x="257" y="154" type="line"/>
      <point x="263" y="162"/>
      <point x="314" y="245"/>
      <point x="325" y="264" type="curve"/>
      <point x="342" y="255"/>
      <point x="376" y="240"/>
      <point x="400" y="240" type="curve" smooth="yes"/>
      <point x="500" y="240"/>
      <point x="580" y="314"/>
    </contour>
    <contour>
      <point x="358" y="420" type="curve" smooth="yes"/>
      <point x="358" y="443"/>
      <point x="375" y="462"/>
      <point x="400" y="462" type="curve" smooth="yes"/>
      <point x="425" y="462"/>
      <point x="442" y="443"/>
      <point x="442" y="420" type="curve" smooth="yes"/>
      <point x="442" y="396"/>
      <point x="425" y="378"/>
      <point x="400" y="378" type="curve" smooth="yes"/>
      <point x="375" y="378"/>
      <point x="358" y="396"/>
    </contour>
  </outline>
</glyph>
<glyph name="uniA914" format="2">
  <advance width="906"/>
  <unicode hex="A914"/>
  <outline>
    <contour>
      <point x="64" y="505" type="line"/>
      <point x="633" y="229" type="line"/>
      <point x="632" y="216" type="line" smooth="yes"/>
      <point x="632" y="196"/>
      <point x="622" y="154"/>
      <point x="595" y="154" type="curve" smooth="yes"/>
      <point x="266" y="154" type="line" smooth="yes"/>
      <point x="229" y="154"/>
      <point x="220" y="178"/>
      <point x="220" y="219" type="curve"/>
      <point x="315" y="219" type="line"/>
      <point x="315" y="348" type="line"/>
      <point x="64" y="348" type="line"/>
      <point x="64" y="-189" type="line" smooth="yes"/>
      <point x="64" y="-258"/>
      <point x="83" y="-312"/>
      <point x="122" y="-351" type="curve"/>
      <point x="121" y="-351" type="line"/>
      <point x="160" y="-390"/>
      <point x="205" y="-410"/>
      <point x="255" y="-410" type="curve" smooth="yes"/>
      <point x="423" y="-410" type="line"/>
      <point x="423" y="-256" type="line"/>
      <point x="281" y="-256" type="line" smooth="yes"/>
      <point x="240" y="-256"/>
      <point x="220" y="-234"/>
      <point x="220" y="-191" type="curve" smooth="yes"/>
      <point x="220" y="2" type="line"/>
      <point x="229" y="1"/>
      <point x="243" y="0"/>
      <point x="255" y="0" type="curve" smooth="yes"/>
      <point x="609" y="0" type="line" smooth="yes"/>
      <point x="666" y="0"/>
      <point x="714" y="30"/>
      <point x="744" y="73" type="curve" smooth="yes"/>
      <point x="772" y="112"/>
      <point x="789" y="165"/>
      <point x="789" y="207" type="curve" smooth="yes"/>
      <point x="789" y="329" type="line"/>
      <point x="220" y="590" type="line"/>
      <point x="220" y="599" type="line" smooth="yes"/>
      <point x="220" y="645"/>
      <point x="242" y="665"/>
      <point x="280" y="665" type="curve" smooth="yes"/>
      <point x="575" y="665" type="line" smooth="yes"/>
      <point x="612" y="665"/>
      <point x="632" y="641"/>
      <point x="633" y="602" type="curve"/>
      <point x="538" y="601" type="line"/>
      <point x="537" y="472" type="line"/>
      <point x="789" y="472" type="line"/>
      <point x="789" y="592" type="line" smooth="yes"/>
      <point x="789" y="735"/>
      <point x="725" y="815"/>
      <point x="598" y="819" type="curve"/>
      <point x="244" y="819" type="line"/>
      <point x="124" y="806"/>
      <point x="64" y="741"/>
      <point x="64" y="608" type="curve" smooth="yes"/>
    </contour>
  </outline>
</glyph>
<glyph name="uniA916" format="2">
  <advance width="906"/>
  <unicode hex="A916"/>
  <outline>
    <contour>
      <point x="476" y="1010" type="line"/>
      <point x="476" y="873" type="line"/>
      <point x="794" y="873" type="line"/>
      <point x="794" y="1011" type="line" smooth="yes"/>
      <point x="794" y="1078"/>
      <point x="778" y="1128"/>
      <point x="745" y="1161" type="curve"/>
      <point x="745" y="1161" type="line"/>
      <point x="713" y="1193"/>
      <point x="667" y="1214"/>
      <point x="606" y="1224" type="curve"/>
      <point x="252" y="1224" type="line"/>
      <point x="125" y="1217"/>
      <point x="69" y="1140"/>
      <point x="69" y="992" type="curve" smooth="yes"/>
      <point x="69" y="244" type="line" smooth="yes"/>
      <point x="69" y="150"/>
      <point x="85" y="86"/>
      <point x="116" y="52" type="curve" smooth="yes"/>
      <point x="148" y="17"/>
      <point x="185" y="0"/>
      <point x="241" y="0" type="curve" smooth="yes"/>
      <point x="346" y="0" type="line"/>
      <point x="346" y="152" type="line"/>
      <point x="266" y="152" type="line" smooth="yes"/>
      <point x="251" y="152"/>
      <point x="241" y="155"/>
      <point x="236" y="161" type="curve"/>
      <point x="237" y="161" type="line"/>
      <point x="229" y="174"/>
      <point x="225" y="200"/>
      <point x="225" y="239" type="curve" smooth="yes"/>
      <point x="225" y="542" type="line" smooth="yes"/>
      <point x="225" y="611"/>
      <point x="246" y="653"/>
      <point x="288" y="667" type="curve"/>
      <point x="587" y="667" type="line" smooth="yes"/>
      <point x="610" y="667"/>
      <point x="624" y="663"/>
      <point x="627" y="655" type="curve" smooth="yes"/>
      <point x="634" y="640"/>
      <point x="638" y="616"/>
      <point x="638" y="582" type="curve" smooth="yes"/>
      <point x="638" y="0" type="line"/>
      <point x="851" y="0" type="line"/>
      <point x="851" y="154" type="line"/>
      <point x="794" y="154" type="line"/>
      <point x="794" y="578" type="line" smooth="yes"/>
      <point x="794" y="667"/>
      <point x="780" y="727"/>
      <point x="752" y="760" type="curve" smooth="yes"/>
      <point x="724" y="792"/>
      <point x="678" y="814"/>
      <point x="614" y="825" type="curve"/>
      <point x="301" y="825" type="line" smooth="yes"/>
      <point x="273" y="825"/>
      <point x="245" y="824"/>
      <point x="225" y="816" type="curve"/>
      <point x="225" y="998" type="line" smooth="yes"/>
      <point x="225" y="1017"/>
      <point x="231" y="1034"/>
      <point x="242" y="1051" type="curve" smooth="yes"/>
      <point x="251" y="1064"/>
      <point x="264" y="1070"/>
      <point x="283" y="1070" type="curve" smooth="yes"/>
      <point x="570" y="1070" type="line" smooth="yes"/>
      <point x="615" y="1070"/>
      <point x="638" y="1059"/>
      <point x="638" y="1037" type="curve" smooth="yes"/>
      <point x="638" y="1010" type="line"/>
    </contour>
  </outline>
</glyph>
<glyph name="uniA917" format="2">
  <advance width="904"/>
  <unicode hex="A917"/>
  <outline>
    <contour>
      <point x="259" y="0" type="curve" smooth="yes"/>
      <point x="600" y="0" type="line" smooth="yes"/>
      <point x="655" y="0"/>
      <point x="701" y="20"/>
      <point x="738" y="61" type="curve" smooth="yes"/>
      <point x="773" y="101"/>
      <point x="791" y="155"/>
      <point x="791" y="222" type="curve" smooth="yes"/>
      <point x="791" y="819" type="line"/>
      <point x="518" y="819" type="line"/>
      <point x="518" y="665" type="line"/>
      <point x="635" y="665" type="line"/>
      <point x="635" y="296" type="line"/>
      <point x="607" y="323"/>
      <point x="560" y="368"/>
      <point x="530" y="396" type="curve" smooth="yes"/>
      <point x="495" y="428"/>
      <point x="461" y="461"/>
      <point x="430" y="490" type="curve"/>
      <point x="399" y="461"/>
      <point x="365" y="428"/>
      <point x="330" y="396" type="curve" smooth="yes"/>
      <point x="300" y="368"/>
      <point x="253" y="323"/>
      <point x="224" y="296" type="curve"/>
      <point x="224" y="665" type="line"/>
      <point x="341" y="665" type="line"/>
      <point x="341" y="819" type="line"/>
      <point x="68" y="819" type="line"/>
      <point x="68" y="222" type="line" smooth="yes"/>
      <point x="68" y="155"/>
      <point x="86" y="101"/>
      <point x="122" y="61" type="curve" smooth="yes"/>
      <point x="159" y="20"/>
      <point x="204" y="0"/>
    </contour>
    <contour>
      <point x="561" y="154" type="line"/>
      <point x="298" y="154" type="line"/>
      <point x="430" y="287" type="line"/>
    </contour>
  </outline>
</glyph>
<glyph name="uniA91A" format="2">
  <advance width="906"/>
  <unicode hex="A91A"/>
  <outline>
    <contour>
      <point x="224" y="154" type="line"/>
      <point x="224" y="509" type="line"/>
      <point x="377" y="665" type="line"/>
      <point x="579" y="665" type="line" smooth="yes"/>
      <point x="618" y="665"/>
      <point x="637" y="645"/>
      <point x="637" y="604" type="curve" smooth="yes"/>
      <point x="637" y="-198" type="line" smooth="yes"/>
      <point x="637" y="-239"/>
      <point x="623" y="-260"/>
      <point x="594" y="-260" type="curve" smooth="yes"/>
      <point x="479" y="-262" type="line"/>
      <point x="479" y="-410" type="line"/>
      <point x="614" y="-410" type="line" smooth="yes"/>
      <point x="658" y="-410"/>
      <point x="700" y="-390"/>
      <point x="736" y="-358" type="curve" smooth="yes"/>
      <point x="772" y="-322"/>
      <point x="793" y="-264"/>
      <point x="793" y="-189" type="curve" smooth="yes"/>
      <point x="793" y="598" type="line" smooth="yes"/>
      <point x="793" y="741"/>
      <point x="730" y="815"/>
      <point x="603" y="819" type="curve" smooth="yes"/>
      <point x="323" y="819" type="line"/>
      <point x="224" y="721" type="line"/>
      <point x="224" y="819" type="line"/>
      <point x="68" y="819" type="line"/>
      <point x="68" y="0" type="line"/>
      <point x="379" y="0" type="line"/>
      <point x="379" y="154" type="line"/>
    </contour>
  </outline>
</glyph>
<glyph name="uniA91B" format="2">
  <advance width="1268"/>
  <unicode hex="A91B"/>
  <outline>
    <contour>
      <point x="971" y="154" type="line"/>
      <point x="824" y="154" type="line"/>
      <point x="824" y="0" type="line"/>
      <point x="1127" y="0" type="line"/>
      <point x="1127" y="598" type="line" smooth="yes"/>
      <point x="1127" y="741"/>
      <point x="1063" y="815"/>
      <point x="936" y="819" type="curve" smooth="yes"/>
      <point x="736" y="819" type="line" smooth="yes"/>
      <point x="607" y="816"/>
      <point x="530" y="738"/>
      <point x="530" y="598" type="curve" smooth="yes"/>
      <point x="530" y="226" type="line" smooth="yes"/>
      <point x="530" y="205"/>
      <point x="524" y="187"/>
      <point x="511" y="173" type="curve" smooth="yes"/>
      <point x="499" y="161"/>
      <point x="481" y="154"/>
      <point x="453" y="154" type="curve" smooth="yes"/>
      <point x="454" y="154" type="line"/>
      <point x="292" y="156" type="line" smooth="yes"/>
      <point x="251" y="156"/>
      <point x="230" y="179"/>
      <point x="230" y="224" type="curve" smooth="yes"/>
      <point x="230" y="665" type="line"/>
      <point x="392" y="665" type="line"/>
      <point x="392" y="819" type="line"/>
      <point x="74" y="819" type="line"/>
      <point x="74" y="222" type="line" smooth="yes"/>
      <point x="74" y="153"/>
      <point x="93" y="98"/>
      <point x="131" y="59" type="curve" smooth="yes"/>
      <point x="170" y="20"/>
      <point x="215" y="0"/>
      <point x="265" y="0" type="curve" smooth="yes"/>
      <point x="476" y="0" type="line" smooth="yes"/>
      <point x="532" y="0"/>
      <point x="580" y="17"/>
      <point x="621" y="52" type="curve" smooth="yes"/>
      <point x="664" y="88"/>
      <point x="686" y="144"/>
      <point x="686" y="220" type="curve" smooth="yes"/>
      <point x="686" y="589" type="line"/>
      <point x="683" y="640"/>
      <point x="704" y="665"/>
      <point x="747" y="665" type="curve" smooth="yes"/>
      <point x="906" y="665" type="line" smooth="yes"/>
      <point x="943" y="665"/>
      <point x="971" y="645"/>
      <point x="971" y="604" type="curve" smooth="yes"/>
    </contour>
  </outline>
</glyph>
<glyph name="uniA91F" format="2">
  <advance width="906"/>
  <unicode hex="A91F"/>
  <outline>
    <contour>
      <point x="224" y="220" type="curve" smooth="yes"/>
      <point x="224" y="246" type="line"/>
      <point x="266" y="259"/>
      <point x="315" y="282"/>
      <point x="352" y="323" type="curve" smooth="yes"/>
      <point x="380" y="352"/>
      <point x="402" y="392"/>
      <point x="416" y="444" type="curve" smooth="yes"/>
      <point x="422" y="470"/>
      <point x="427" y="500"/>
      <point x="428" y="534" type="curve" smooth="yes"/>
      <point x="426" y="819" type="line"/>
      <point x="68" y="819" type="line"/>
      <point x="68" y="222" type="line" smooth="yes"/>
      <point x="68" y="153"/>
      <point x="87" y="98"/>
      <point x="126" y="59" type="curve" smooth="yes"/>
      <point x="165" y="20"/>
      <point x="209" y="0"/>
      <point x="259" y="0" type="curve" smooth="yes"/>
      <point x="389" y="0" type="line"/>
      <point x="637" y="251" type="line"/>
      <point x="637" y="-198" type="line" smooth="yes"/>
      <point x="637" y="-239"/>
      <point x="623" y="-260"/>
      <point x="595" y="-260" type="curve" smooth="yes"/>
      <point x="480" y="-260" type="line"/>
      <point x="480" y="-410" type="line"/>
      <point x="614" y="-410" type="line" smooth="yes"/>
      <point x="736" y="-410"/>
      <point x="798" y="-317"/>
      <point x="793" y="-189" type="curve"/>
      <point x="793" y="819" type="line"/>
      <point x="637" y="819" type="line"/>
      <point x="637" y="462" type="line"/>
      <point x="329" y="154" type="line"/>
      <point x="286" y="154" type="line" smooth="yes"/>
      <point x="245" y="154"/>
      <point x="224" y="175"/>
    </contour>
    <contour>
      <point x="224" y="408" type="curve"/>
      <point x="224" y="665" type="line"/>
      <point x="289" y="665" type="line"/>
      <point x="289" y="544" type="line" smooth="yes"/>
      <point x="289" y="500"/>
      <point x="264" y="435"/>
    </contour>
  </outline>
</glyph>
<glyph name="uniA921" format="2">
  <advance width="906"/>
  <unicode hex="A921"/>
  <outline>
    <contour>
      <point x="637" y="1005" type="curve" smooth="yes"/>
      <point x="637" y="263" type="line"/>
      <point x="211" y="815" type="line"/>
      <point x="68" y="815" type="line"/>
      <point x="68" y="0" type="line"/>
      <point x="357" y="0" type="line"/>
      <point x="357" y="154" type="line"/>
      <point x="224" y="154" type="line"/>
      <point x="224" y="556" type="line"/>
      <point x="652" y="0" type="line"/>
      <point x="793" y="0" type="line"/>
      <point x="793" y="1000" type="line" smooth="yes"/>
      <point x="793" y="1143"/>
      <point x="730" y="1217"/>
      <point x="603" y="1221" type="curve"/>
      <point x="248" y="1221" type="line"/>
      <point x="128" y="1207"/>
      <point x="68" y="1133"/>
      <point x="68" y="1000" type="curve" smooth="yes"/>
      <point x="68" y="868" type="line"/>
      <point x="394" y="868" type="line"/>
      <point x="394" y="1006" type="line"/>
      <point x="224" y="1006" type="line"/>
      <point x="224" y="1013" type="line" smooth="yes"/>
      <point x="224" y="1048"/>
      <point x="241" y="1066"/>
      <point x="275" y="1067" type="curve" smooth="yes"/>
      <point x="579" y="1067" type="line" smooth="yes"/>
      <point x="618" y="1067"/>
      <point x="637" y="1046"/>
    </contour>
  </outline>
</glyph>
<glyph name="uniA922" format="2">
  <advance width="906"/>
  <unicode hex="A922"/>
  <outline>
    <contour>
      <point x="443" y="334" type="line"/>
      <point x="443" y="487" type="line"/>
      <point x="271" y="487" type="line" smooth="yes"/>
      <point x="255" y="487"/>
      <point x="244" y="493"/>
      <point x="235" y="502" type="curve" smooth="yes"/>
      <point x="227" y="511"/>
      <point x="223" y="518"/>
      <point x="224" y="523" type="curve"/>
      <point x="224" y="599" type="line" smooth="yes"/>
      <point x="224" y="644"/>
      <point x="245" y="667"/>
      <point x="286" y="667" type="curve" smooth="yes"/>
      <point x="595" y="669" type="line" smooth="yes"/>
      <point x="623" y="669"/>
      <point x="637" y="648"/>
      <point x="637" y="607" type="curve" smooth="yes"/>
      <point x="637" y="587" type="line"/>
      <point x="506" y="587" type="line"/>
      <point x="506" y="442" type="line"/>
      <point x="793" y="442" type="line"/>
      <point x="793" y="599" type="line" smooth="yes"/>
      <point x="793" y="650"/>
      <point x="784" y="693"/>
      <point x="765" y="727" type="curve" smooth="yes"/>
      <point x="746" y="762"/>
      <point x="722" y="786"/>
      <point x="694" y="800" type="curve" smooth="yes"/>
      <point x="667" y="813"/>
      <point x="641" y="820"/>
      <point x="614" y="820" type="curve" smooth="yes"/>
      <point x="259" y="820" type="line" smooth="yes"/>
      <point x="204" y="820"/>
      <point x="159" y="800"/>
      <point x="122" y="759" type="curve" smooth="yes"/>
      <point x="86" y="720"/>
      <point x="68" y="666"/>
      <point x="68" y="599" type="curve" smooth="yes"/>
      <point x="68" y="480" type="line" smooth="yes"/>
      <point x="68" y="451"/>
      <point x="76" y="426"/>
      <point x="92" y="410" type="curve"/>
      <point x="76" y="393"/>
      <point x="68" y="370"/>
      <point x="68" y="340" type="curve" smooth="yes"/>
      <point x="68" y="222" type="line" smooth="yes"/>
      <point x="68" y="155"/>
      <point x="86" y="101"/>
      <point x="122" y="61" type="curve" smooth="yes"/>
      <point x="159" y="20"/>
      <point x="204" y="0"/>
      <point x="259" y="0" type="curve" smooth="yes"/>
      <point x="614" y="0" type="line" smooth="yes"/>
      <point x="641" y="0"/>
      <point x="667" y="7"/>
      <point x="694" y="20" type="curve" smooth="yes"/>
      <point x="722" y="35"/>
      <point x="746" y="59"/>
      <point x="765" y="93" type="curve" smooth="yes"/>
      <point x="784" y="128"/>
      <point x="793" y="171"/>
      <point x="793" y="222" type="curve" smooth="yes"/>
      <point x="793" y="378" type="line"/>
      <point x="506" y="378" type="line"/>
      <point x="506" y="234" type="line"/>
      <point x="637" y="234" type="line"/>
      <point x="637" y="214" type="line" smooth="yes"/>
      <point x="637" y="173"/>
      <point x="623" y="152"/>
      <point x="595" y="152" type="curve" smooth="yes"/>
      <point x="286" y="154" type="line" smooth="yes"/>
      <point x="245" y="154"/>
      <point x="224" y="177"/>
      <point x="224" y="222" type="curve" smooth="yes"/>
      <point x="224" y="297" type="line"/>
      <point x="223" y="302"/>
      <point x="227" y="309"/>
      <point x="235" y="318" type="curve" smooth="yes"/>
      <point x="244" y="327"/>
      <point x="255" y="334"/>
      <point x="271" y="334" type="curve" smooth="yes"/>
    </contour>
  </outline>
</glyph>
<glyph name="uniA923" format="2">
  <advance width="906"/>
  <unicode hex="A923"/>
  <outline>
    <contour>
      <point x="540" y="152" type="line"/>
      <point x="540" y="0" type="line"/>
      <point x="614" y="0" type="line" smooth="yes"/>
      <point x="679" y="0"/>
      <point x="729" y="34"/>
      <point x="756" y="82" type="curve" smooth="yes"/>
      <point x="781" y="125"/>
      <point x="793" y="181"/>
      <point x="793" y="224" type="curve" smooth="yes"/>
      <point x="793" y="819" type="line"/>
      <point x="534" y="819" type="line"/>
      <point x="534" y="665" type="line"/>
      <point x="637" y="665" type="line"/>
      <point x="637" y="493" type="line"/>
      <point x="298" y="154" type="line"/>
      <point x="286" y="154" type="line" smooth="yes"/>
      <point x="245" y="154"/>
      <point x="224" y="177"/>
      <point x="224" y="222" type="curve" smooth="yes"/>
      <point x="224" y="665" type="line"/>
      <point x="326" y="665" type="line"/>
      <point x="326" y="819" type="line"/>
      <point x="68" y="819" type="line"/>
      <point x="68" y="222" type="line" smooth="yes"/>
      <point x="68" y="153"/>
      <point x="87" y="98"/>
      <point x="126" y="59" type="curve" smooth="yes"/>
      <point x="165" y="20"/>
      <point x="209" y="0"/>
      <point x="259" y="0" type="curve" smooth="yes"/>
      <point x="353" y="0" type="line"/>
      <point x="637" y="283" type="line"/>
      <point x="637" y="214" type="line" smooth="yes"/>
      <point x="637" y="173"/>
      <point x="623" y="152"/>
      <point x="595" y="152" type="curve" smooth="yes"/>
    </contour>
  </outline>
</glyph>
<glyph name="uniA92F" format="2">
  <advance width="282"/>
  <unicode hex="A92F"/>
  <outline>
    <contour>
      <point x="214" y="0" type="line"/>
      <point x="214" y="817" type="line"/>
      <point x="59" y="820" type="line"/>
      <point x="59" y="0" type="line"/>
    </contour>
  </outline>
</glyph>
